inDegrees=yes
name=ik_lifting_orientations
DataType=double
version=3
OpenSimVersion=4.5-2024-01-10-34fd6af
endheader
time	pelvis_tilt	pelvis_list	pelvis_rotation	pelvis_tx	pelvis_ty	pelvis_tz	hip_flexion_r	hip_adduction_r	hip_rotation_r	knee_angle_r	knee_angle_r_beta	ankle_angle_r	subtalar_angle_r	mtp_angle_r	hip_flexion_l	hip_adduction_l	hip_rotation_l	knee_angle_l	knee_angle_l_beta	ankle_angle_l	subtalar_angle_l	mtp_angle_l	lumbar_extension	lumbar_bending	lumbar_rotation	arm_flex_r	arm_add_r	arm_rot_r	elbow_flex_r	pro_sup_r	wrist_flex_r	wrist_dev_r	arm_flex_l	arm_add_l	arm_rot_l	elbow_flex_l	pro_sup_l	wrist_flex_l	wrist_dev_l
0.62	-0.7227945289521683	1.011758411763864	-86.50945211781669	0	0.9399999998679526	0	45.46238858345506	-10.18090201589368	0	60.09476006346321	1.048851426303429	-5.051599187668179	0	0	45.46238858345506	-10.18090201589368	0	60.09476006346321	1.048851426303429	-5.051599187668179	0	0	1.611697846024217	0.6683234152665042	-2.200425805100298	1.086838778862922	-6.213024469460482	0.3909059544397628	5.425322532155694	1.32870528688697	0	0	0	-12.31803050944307	0	88.69759172696514	1.32870528688697	0	0
0.63	-0.7363193854401822	1.202484844513245	-86.5103176499069	0	0.9399999998679526	0	45.46225017599351	-10.18071266548233	0	60.09473785108165	1.048851038624236	-5.051528728651321	0	0	45.46225017599351	-10.18071266548233	0	60.09473785108165	1.048851038624236	-5.051528728651321	0	0	2.552540277099394	0.6331096907495602	-1.926352172937564	-0.08888162764004935	-6.905858775600367	0.3698032786067977	6.294558422259464	1.328428592365155	0	0	0	-12.31844151672419	0	88.69786290691215	1.328428592365155	0	0
0.64	-0.8228728916401706	1.373091700983034	-86.20200010144829	0	0.9399999998679526	0	45.46213322899545	-10.18055348579705	0	60.09471901644179	1.048850709897758	-5.051469565083528	0	0	45.46213322899545	-10.18055348579705	0	60.09471901644179	1.048850709897758	-5.051469565083528	0	0	3.460867545665501	0.6636438763040277	-1.973554423517489	-1.32560613235987	-7.529017981056909	0.1088483566130809	7.058358455103043	1.328194466074954	0	0	0	-12.31878970658869	0	88.69809236703264	1.328194466074954	0	0
0.65	-0.8981228841065992	1.573991868946828	-85.96038456243139	0	0.9399999998679526	0	45.46200541955783	-10.18037918198721	0	60.09469847351929	1.048850351356122	-5.051404765168708	0	0	45.46200541955783	-10.18037918198721	0	60.09469847351929	1.048850351356122	-5.051404765168708	0	0	4.572906422781683	0.6569363313324869	-1.90145899627915	-2.460621275720646	-7.907251272925879	0.001851528412096359	7.490705317709421	1.327938776751155	0	0	0	-12.31916972592105	0	88.69834296042617	1.327938776751155	0	0
0.66	-1.004163800832395	1.805296085290981	-85.93027545156808	0	0.9399999998679526	0	45.46185276772702	-10.18017174090755	0	60.09467388223835	1.048849922157302	-5.051327714347789	0	0	45.46185276772702	-10.18017174090755	0	60.09467388223835	1.048849922157302	-5.051327714347789	0	0	5.750092276487873	0.7091493495717462	-1.585700010781123	-4.170933263688103	-8.493100462865682	-0.3189991755725112	8.532019486655383	1.327633100440158	0	0	0	-12.31962439158872	0	88.69864254456868	1.327633100440158	0	0
0.67	-1.045877852133535	2.243453390590476	-85.78609032281693	0	0.9399999998679526	0	45.46170513776928	-10.17997327757806	0	60.09464991540867	1.048849503857213	-5.051254172041708	0	0	45.46170513776928	-10.17997327757806	0	60.09464991540867	1.048849503857213	-5.051254172041708	0	0	7.246652388777357	0.6617323475107367	-1.873110392849826	-6.048485197294113	-9.082179735833149	-0.2852883502796656	9.866401756560053	1.327336568307532	0	0	0	-12.32006658981369	0	88.69893316681012	1.327336568307532	0	0
0.68	-1.134529680676134	2.992639738122222	-85.86419139424346	0	0.9399999998679526	0	45.46154380500153	-10.17975686610981	0	60.09462369316591	1.04884904619274	-5.05117402719004	0	0	45.46154380500153	-10.17975686610981	0	60.09462369316591	1.04884904619274	-5.05117402719004	0	0	9.186190325372822	0.6638405467177563	-2.802367774157643	-7.867980386155663	-9.567484611627579	0.6830894609993629	10.62043151776828	1.32701234080173	0	0	0	-12.3205502944708	0	88.69925093246195	1.32701234080173	0	0
0.6899999999999999	-1.156187296191791	3.865134824983657	-86.09783858019465	0	0.9399999998679526	0	45.46137089916793	-10.17952619452681	0	60.09459548405572	1.048848553850888	-5.051088707186114	0	0	45.46137089916793	-10.17952619452681	0	60.09459548405572	1.048848553850888	-5.051088707186114	0	0	11.24246909864492	0.6544451774042092	-3.137302016413789	-9.750123134140145	-10.00777203458641	1.115776802130368	11.502398119701	1.326664321667108	0	0	0	-12.32107015576367	0	88.69959201559499	1.326664321667108	0	0
0.7	-1.125762038358926	4.957754077234648	-86.6991707206583	0	0.9399999998679526	0	45.46122987561132	-10.17933902857478	0	60.09457239613261	1.048848150890612	-5.051019561417096	0	0	45.46122987561132	-10.17933902857478	0	60.09457239613261	1.048848150890612	-5.051019561417096	0	0	13.51602261109659	0.6847012911009864	-2.986378307469509	-11.48466186310315	-10.39256773237998	1.431032735117129	12.30314538448392	1.326380068326728	0	0	0	-12.32149526687413	0	88.69987060379702	1.326380068326728	0	0
0.71	-1.063192754031141	6.006040871064547	-87.36042561098806	0	0.9399999998679526	0	45.46103012388741	-10.17907248998584	0	60.09453984584967	1.048847582781002	-5.050921004629004	0	0	45.46103012388741	-10.17907248998584	0	60.09453984584967	1.048847582781002	-5.050921004629004	0	0	15.98831129899275	0.7755229794794696	-2.588924054164619	-13.40912434240496	-10.71217370079746	1.515924002549181	12.64755123491518	1.325978141417754	0	0	0	-12.3220954714456	0	88.70026452032209	1.325978141417754	0	0
0.72	-0.9831966560673421	7.01630156755604	-87.96614386709372	0	0.9399999998679526	0	45.46086608641231	-10.17885558344811	0	60.09451294157898	1.048847113212896	-5.050840957943316	0	0	45.46086608641231	-10.17885558344811	0	60.09451294157898	1.048847113212896	-5.050840957943316	0	0	18.48723004257743	0.8784813368613167	-2.213417812660095	-15.37057454674479	-11.01902126797312	1.556716297377132	12.926885966562	1.325647215891566	0	0	0	-12.32259072198103	0	88.70058885054937	1.325647215891566	0	0
0.73	-0.9654450114681814	8.082276886634872	-88.24763673146421	0	0.9399999998679526	0	45.46069786557729	-10.17863865007284	0	60.09448481656619	1.048846622338821	-5.050761295272403	0	0	45.46069786557729	-10.17863865007284	0	60.09448481656619	1.048846622338821	-5.050761295272403	0	0	20.88816678515425	1.015316887926993	-1.896878423397357	-17.11358674443954	-11.1784490065744	1.36413128018963	12.92102233871344	1.325305277731412	0	0	0	-12.32310570692318	0	88.70092397402203	1.325305277731412	0	0
